<svg viewBox="0 0 512 512" xmlns="http://www.w3.org/2000/svg"><path d="M373.406 0h-234.813c-76.422 0-138.594 62.172-138.594 138.594v234.816c0 76.418 62.172 138.59 138.594 138.59h234.816c76.418 0 138.59-62.172 138.59-138.59v-234.816c0-76.422-62.172-138.594-138.594-138.594zm-117.406 395.996c-77.195 0-139.996-62.801-139.996-139.996s62.801-139.996 139.996-139.996 139.996 62.801 139.996 139.996-62.801 139.996-139.996 139.996zm143.344-246.977c-22.813 0-41.367-18.555-41.367-41.367s18.555-41.371 41.367-41.371 41.371 18.559 41.371 41.371-18.559 41.367-41.371 41.367zm0 0M256 146.02c-60.641 0-109.98 49.336-109.98 109.98 0 60.641 49.34 109.98 109.98 109.98 60.645 0 109.98-49.34 109.98-109.98 0-60.645-49.336-109.98-109.98-109.98zm0 0M399.344 96.301c-6.258 0-11.352 5.094-11.352 11.352s5.094 11.352 11.352 11.352c6.262 0 11.355-5.09 11.355-11.352 0-6.262-5.094-11.352-11.355-11.352zm0 0"/></svg>