<svg xmlns="http://www.w3.org/2000/svg" viewBox="0 0 100 100">
    <path d="M97.481 90.325l-4.374 4.424a24.996 24.996 0 0 1-6.349 3.449 26.071 26.071 0 0 1-6.424 1.625c-1.025 0-24.396 2.3-53.391-26.696-21.047-20.997-28.67-36.444-26.621-53.367a26.021 26.021 0 0 1 1.575-6.424 25.271 25.271 0 0 1 3.724-6.199l4.299-4.549a8.049 8.049 0 0 1 11.348-.225l15.473 15.473a8.049 8.049 0 0 1-.2 11.348l-2.5 2.5-5.274 5.299.85 1.625a72.938 72.938 0 0 0 32.17 32.095l1.6.85 7.774-7.774a8.074 8.074 0 0 1 11.323-.275l15.473 15.473-.225-.175a8.074 8.074 0 0 1-.2 11.423z"/>
</svg>