<svg xmlns="http://www.w3.org/2000/svg" viewBox="0 0 676.37323 118.74485"><path d="M.002.001c.688.844 7.215 4.094 17.099 9.061 17.094 8.591 32.069 14.768 49.212 20.302 11.156 3.601 16.434 5.022 30.339 8.171 44.45 10.067 92.545 12.107 153.458 6.51 15.376-1.413 53.248-5.937 85.545-10.219 41.698-5.529 62.522-7.815 87.14-9.566 12.247-.871 15.159-.953 33.69-.949 18.781.004 21.161.074 32.103.947 33.256 2.654 63.829 9.521 88.194 19.811 34.685 14.648 66.208 37.505 93.94 68.118 2.658 2.934 5.65 6.559 5.65 6.559l-676.37-.001c.007-39.556 0-118.744 0-118.744z"/></svg>