<?xml version="1.0" encoding="utf-8"?><svg xmlns="http://www.w3.org/2000/svg" xmlns:xlink="http://www.w3.org/1999/xlink"><symbol viewBox="0 0 386.258 386.258" id="arrow-triangle-left" xmlns="http://www.w3.org/2000/svg"><path d="M96.879 193.129l192.5 193.129V0z"/></symbol><symbol viewBox="0 0 386.258 386.258" id="arrow-triangle-right" xmlns="http://www.w3.org/2000/svg"><path d="M96.879 0v386.258l192.5-193.129z"/></symbol><symbol viewBox="0 0 64 64" id="arrows-slim-down" xmlns="http://www.w3.org/2000/svg"><path d="M31 0v60.586l-7.293-7.293-1.414 1.561 9 9.146h1.414l9-9.146-1.414-1.488L33 60.586V0z"/></symbol><symbol viewBox="0 0 64 64" id="arrows-slim-left" xmlns="http://www.w3.org/2000/svg"><path d="M10.707 23.707l-1.561-1.414-9.146 9v1.414l9.146 9 1.488-1.414L3.414 33H64v-2H3.414z"/></symbol><symbol viewBox="0 0 64 64" id="arrows-slim-right" xmlns="http://www.w3.org/2000/svg"><path d="M53.293 40.293l1.561 1.414 9.146-9v-1.414l-9.146-9-1.488 1.414L60.586 31H0v2h60.586z"/></symbol><symbol viewBox="0 0 64 64" id="arrows-slim-up" xmlns="http://www.w3.org/2000/svg"><path d="M33 64V3.414l7.293 7.293 1.414-1.561-9-9.146h-1.414l-9 9.146 1.414 1.488L31 3.414V64z"/></symbol><symbol viewBox="0 0 230 230" id="email" xmlns="http://www.w3.org/2000/svg"><path d="M230 49.585c0-.263.181-.519.169-.779l-70.24 67.68 70.156 65.518c.041-.468-.085-.94-.085-1.418V49.585zm-80.793 77.316l-28.674 27.588a7.48 7.48 0 01-5.2 2.096 7.478 7.478 0 01-5.113-2.013l-28.596-26.647-70.614 68.064c1.717.617 3.56 1.096 5.49 1.096h197.667c2.866 0 5.554-.873 7.891-2.175l-72.851-68.009zm-33.956 11.856L222.447 35.496c-2.427-1.443-5.252-2.411-8.28-2.411H16.5c-3.943 0-7.556 1.531-10.37 3.866l109.121 101.806zM0 52.1v128.484c0 1.475.339 2.897.707 4.256l69.738-67.156L0 52.1z"/></symbol><symbol viewBox="0 0 96.124 96.123" id="facebook" xmlns="http://www.w3.org/2000/svg"><path d="M72.089.02L59.624 0C45.62 0 36.57 9.285 36.57 23.656v10.907H24.037a1.96 1.96 0 00-1.96 1.961v15.803a1.96 1.96 0 001.96 1.96H36.57v39.876a1.96 1.96 0 001.96 1.96h16.352a1.96 1.96 0 001.96-1.96V54.287h14.654a1.96 1.96 0 001.96-1.96l.006-15.803a1.963 1.963 0 00-1.961-1.961H56.842v-9.246c0-4.444 1.059-6.7 6.848-6.7l8.397-.003a1.96 1.96 0 001.959-1.96V1.98A1.96 1.96 0 0072.089.02z"/></symbol><symbol viewBox="0 0 512 512" id="instagram" xmlns="http://www.w3.org/2000/svg"><path d="M373.406 0H138.593C62.171 0-.001 62.172-.001 138.594V373.41C-.001 449.828 62.171 512 138.593 512h234.816c76.418 0 138.59-62.172 138.59-138.59V138.594C511.999 62.172 449.827 0 373.405 0zM256 395.996c-77.195 0-139.996-62.801-139.996-139.996S178.805 116.004 256 116.004 395.996 178.805 395.996 256 333.195 395.996 256 395.996zm143.344-246.977c-22.813 0-41.367-18.555-41.367-41.367s18.555-41.371 41.367-41.371 41.371 18.559 41.371 41.371-18.559 41.367-41.371 41.367zM256 146.02c-60.641 0-109.98 49.336-109.98 109.98 0 60.641 49.34 109.98 109.98 109.98 60.645 0 109.98-49.34 109.98-109.98 0-60.645-49.336-109.98-109.98-109.98zm143.344-49.719c-6.258 0-11.352 5.094-11.352 11.352s5.094 11.352 11.352 11.352c6.262 0 11.355-5.09 11.355-11.352 0-6.262-5.094-11.352-11.355-11.352zm0 0"/></symbol><symbol viewBox="0 0 100 100" id="map" xmlns="http://www.w3.org/2000/svg"><path d="M49.962 0A40.584 40.584 0 009.378 40.584c0 20.367 25.346 47.164 35.88 57.548a6.856 6.856 0 009.408 0C65.4 88.124 90.621 62.152 90.621 40.584A40.584 40.584 0 0049.962 0zm0 53.77a16.814 16.814 0 1116.814-16.814A16.814 16.814 0 0150.037 53.77z"/></symbol><symbol viewBox="0 0 100 100" id="phone" xmlns="http://www.w3.org/2000/svg"><path d="M97.481 90.325l-4.374 4.424a24.996 24.996 0 01-6.349 3.449 26.071 26.071 0 01-6.424 1.625c-1.025 0-24.396 2.3-53.391-26.696C5.896 52.13-1.727 36.683.322 19.76a26.021 26.021 0 011.575-6.424 25.271 25.271 0 013.724-6.199L9.92 2.588a8.049 8.049 0 0111.348-.225l15.473 15.473a8.049 8.049 0 01-.2 11.348l-2.5 2.5-5.274 5.299.85 1.625a72.938 72.938 0 0032.17 32.095l1.6.85 7.774-7.774a8.074 8.074 0 0111.323-.275l15.473 15.473-.225-.175a8.074 8.074 0 01-.2 11.423z"/></symbol></svg>