<svg xmlns="http://www.w3.org/2000/svg" width="172" height="80" viewBox="0 0 45.508332 21.166667">
   <path fill="#1e1e1e" d="M0 .001h45.508v21.166h-45.508z"/>
   <path fill="#fff" d="M13.598 13.15l-1.53-2.418-1.282 3.793-7.062-2.389 3.281 5.187z"/>
   <path fill="#4cc7ec" d="M5.481 3.674l7.371 2.52-2.52 7.371-7.371-2.52z"/>
   <path d="M17.857 11.387h2.082v1.196h-3.641v-6.455h1.559z" fill="#fff"/>
   <path d="M34.206 64.254a12.738 12.738 0 0 1 5.007 5.817v-7.474h12.518v41.087h-12.518v-7.437a12.831 12.831 0 0 1-5.007 5.817 14.901 14.901 0 0 1-8.1 2.135 16.65 16.65 0 0 1-9.094-2.54 17.488 17.488 0 0 1-6.332-7.363 28.247 28.247 0 0 1 0-22.421 17.488 17.488 0 0 1 6.332-7.29 16.65 16.65 0 0 1 9.094-2.54 14.828 14.828 0 0 1 8.1 2.209zm-10.566 11.56c-1.638 1.767-2.467 4.215-2.467 7.363 0 3.148.828 5.596 2.467 7.363a9.204 9.204 0 0 0 13.033-.074 11.781 11.781 0 0 0 0-14.616 9.287 9.287 0 0 0-13.033 0z" fill="#fff" transform="matrix(.124 0 0 .124 20.274 -.273)"/>
   <path d="M68.667 46.288a8.845 8.845 0 0 1 10.898 0 6.13 6.13 0 0 1 2.062 4.749 6.056 6.056 0 0 1-2.062 4.676 8.845 8.845 0 0 1-10.898 0 6.084 6.084 0 0 1-2.062-4.676 6.158 6.158 0 0 1 2.062-4.749zm11.708 16.31v41.087h-12.591v-41.087z" fill="#fff" transform="matrix(.124 0 0 .124 20.274 -.273)"/>
   <path d="M33.607 11.278h2.356v1.306h-4.063v-1.237l2.191-2.566h-2.153v-1.292h3.935v1.233z" fill="#fff"/>
   <path d="M178.527 85.423h-28.533q.221 4.602 2.356 6.664a7.63 7.63 0 0 0 5.449 2.025 7.455 7.455 0 0 0 4.602-1.399 6.59 6.59 0 0 0 2.43-3.608h13.328a17.488 17.488 0 0 1-3.534 7.768 18.878 18.878 0 0 1-6.921 5.375 23.636 23.636 0 0 1-20.065-.589 18.169 18.169 0 0 1-7.363-7.363 25.192 25.192 0 0 1 0-22.421 17.911 17.911 0 0 1 7.363-7.29 24.17 24.17 0 0 1 21.501 0 17.663 17.663 0 0 1 7.179 7.032 20.921 20.921 0 0 1 2.54 10.419 17.184 17.184 0 0 1-.331 3.387zm-14.542-11.376a7.989 7.989 0 0 0-5.522-2.025 8.21 8.21 0 0 0-5.743 2.062 8.624 8.624 0 0 0-2.577 6.038h16.015c.046-2.706-.644-4.731-2.172-6.075z" fill="#fff" transform="matrix(.124 0 0 .124 20.274 -.273)"/>
   <path d="M16.468 14.384v.467h.551v-.467h.208v1.16h-.208v-.525h-.551v.525h-.209v-1.16z" fill="#fff"/>
   <path d="M-12.698 127.551l-.138-1.178h-.055a3.507 3.507 0 0 1-2.862 1.39 2.669 2.669 0 0 1-2.862-2.688c0-2.264 2.016-3.498 5.624-3.479v-.193a1.924 1.924 0 0 0-2.126-2.163 4.602 4.602 0 0 0-2.43.7l-.387-1.123a5.753 5.753 0 0 1 3.074-.838c2.853 0 3.553 1.96 3.553 3.829v3.498a12.886 12.886 0 0 0 .156 2.246zm-.258-4.777c-1.841 0-3.958.295-3.958 2.108a1.5 1.5 0 0 0 1.602 1.62 2.319 2.319 0 0 0 2.264-1.565 1.841 1.841 0 0 0 .092-.534z" fill="#fff" transform="matrix(.124 0 0 .124 20.274 -.273)"/>
   <path d="M20.463 14.384v.168h-.362v.992h-.208v-.992h-.363v-.168z" fill="#fff"/>
   <path d="M13.764 127.551h-1.684v-3.921h-1.261a2.246 2.246 0 0 0-1.565.515c-.69.561-.92 1.721-1.307 2.632a7.557 7.557 0 0 1-.387.773h-1.841a6.443 6.443 0 0 0 .58-1.068c.405-.92.635-2.126 1.473-2.816a2.117 2.117 0 0 1 1.058-.543v-.055a2.494 2.494 0 0 1-2.467-2.319 2.255 2.255 0 0 1 1.233-2.034 6.581 6.581 0 0 1 3.129-.635 25.21 25.21 0 0 1 3.019.193zm-1.684-8.238a9.913 9.913 0 0 0-1.408-.092c-1.16 0-2.531.331-2.531 1.62 0 1.289 1.482 1.629 2.485 1.629h1.454z" fill="#fff" transform="matrix(.124 0 0 .124 20.274 -.273)"/>
   <path d="M21.219 118.199l3.093 4.077h.377v-4.077h1.62v4.041h.331l3.093-4.077h1.951l-3.682 4.243a3.295 3.295 0 0 1 2.807 2.476 21.538 21.538 0 0 0 1.022 2.632h-1.703a13.18 13.18 0 0 1-.847-2.145 2.596 2.596 0 0 0-2.669-1.997h-.295v4.142h-1.629v-4.142h-.313c-1.307 0-2.099.488-2.678 2.016a16.659 16.659 0 0 1-.92 2.126h-1.611a27.612 27.612 0 0 0 1.022-2.614c.58-1.5 1.408-2.338 2.816-2.494l-3.682-4.243z" fill="#fff" transform="matrix(.124 0 0 .124 20.274 -.273)"/>
   <path d="M25.093 14.384v.467h.551v-.467h.209v1.16h-.209v-.525h-.551v.525h-.208v-1.16z" fill="#fff"/>
   <path d="M53.323 118.199v3.185a8.339 8.339 0 0 1 1.528-.12c2.016 0 4.041.838 4.041 3.139a2.651 2.651 0 0 1-.966 2.163 5.909 5.909 0 0 1-3.764 1.077 24.207 24.207 0 0 1-2.513-.129v-9.315zm0 8.173a10.032 10.032 0 0 0 1.178.074c1.298 0 2.706-.543 2.706-1.988 0-1.445-1.353-1.97-2.623-1.97a8.146 8.146 0 0 0-1.261.092zm8.431-8.173v9.351h-1.684v-9.351z" fill="#fff" transform="matrix(.124 0 0 .124 20.274 -.273)"/>
   <path d="M69.385 123.16a3.001 3.001 0 0 0 3.212 3.249 6.038 6.038 0 0 0 2.586-.488l.295 1.224a7.658 7.658 0 0 1-3.111.58c-2.881 0-4.602-1.896-4.602-4.722 0-2.826 1.666-5.044 4.39-5.044 3.047 0 3.866 2.688 3.866 4.409a6.296 6.296 0 0 1-.064.792zm5.007-1.197c0-1.086-.442-2.761-2.356-2.761-1.721 0-2.476 1.583-2.614 2.761z" fill="#fff" transform="matrix(.124 0 0 .124 20.274 -.273)"/>
   <path d="M32.392 14.384v1.16h-.211v-.992h-.539v.992h-.203v-1.16z" fill="#fff"/>
   <path d="M34.268 14.953c0 .429-.297.616-.578.616-.314 0-.556-.228-.556-.597 0-.388.255-.616.571-.616.316 0 .563.243.563.597zm-.92.013c0 .253.146.445.353.445s.352-.189.352-.45c0-.197-.098-.446-.342-.446-.244 0-.362.231-.362.451z" fill="#fff"/>
   <path d="M35.783 14.384v.168h-.362v.992h-.208v-.992h-.362v-.168z" fill="#fff"/>
   <path d="M37.471 14.953c0 .429-.298.616-.578.616-.314 0-.556-.228-.556-.597 0-.388.253-.616.571-.616.317 0 .563.243.563.597zm-.921.013c0 .253.147.445.353.445.205 0 .357-.184.357-.45 0-.197-.098-.446-.342-.446-.244 0-.368.231-.368.451z" fill="#fff"/>
   <path d="M151.826 118.199v9.351h-1.684v-8.026h-3.203v2.439c0 2.632-.258 4.39-1.473 5.182a2.761 2.761 0 0 1-1.841.58l-.166-1.335a2.181 2.181 0 0 0 .92-.387c.92-.644.966-1.951.966-4.041v-3.764z" fill="#fff" transform="matrix(.124 0 0 .124 20.274 -.273)"/>
   <path d="M160.192 118.199v4.041h.405l3.516-4.05h2.071l-4.077 4.225c1.509.156 2.411 1.16 3.148 2.844a19.77 19.77 0 0 0 1.003 2.283h-1.776a12.287 12.287 0 0 1-.865-1.914 3.037 3.037 0 0 0-3.093-2.2h-.331v4.114h-1.675v-9.342z" fill="#fff" transform="matrix(.124 0 0 .124 20.274 -.273)"/>
   <path d="M41.756 14.384v.488l-.013.465h.007l.187-.357.362-.598h.247v1.16h-.201v-.492l.015-.474h-.008l-.192.36-.362.606h-.242v-1.157z" fill="#fff"/>
</svg>
